# xmcd CD database file
#
# Track frame offsets:
#	150
#	13884
#	28407
#	42902
#	56367
#	71337
#	84294
#	98202
#	113284
#	132617
#	140972
#	156169
#	172889
#	188612
#
# Disc length: 2595 seconds
#
# Revision: 0
# Processed by: cddbd v1.5.2PL0 Copyright (c) Steve Scherf et al.
# Submitted via: CDex 1.51
#
DISCID=b80a210e
DTITLE=Juliette Gréco - Je suis comme je suis
DYEAR=2003
DGENRE=Jazz
TTITLE0=Je suis comme je suis
TTITLE1=Si tu t'imagines
TTITLE2=Je hais les dimanches
TTITLE3=Les feuilles mortes
TTITLE4=Les enfants qui s'aiment
TTITLE5=La fiancée du pirate
TTITLE6=Embrasse-moi
TTITLE7=Sous le ciel de Paris
TTITLE8=Barbara song
TTITLE9=La rue des Blancs Manteaux
TTITLE10=Les dames de la poste
TTITLE11=A la belle étoile
TTITLE12=Il y avait
TTITLE13=La fourmi
EXTD=YEAR: 2003
EXTT0=
EXTT1=
EXTT2=
EXTT3=
EXTT4=
EXTT5=
EXTT6=
EXTT7=
EXTT8=
EXTT9=
EXTT10=
EXTT11=
EXTT12=
EXTT13=
PLAYORDER=
